<?xml version="1.0" encoding="UTF-8"?>
<svg xmlns="http://www.w3.org/2000/svg" xmlns:xlink="http://www.w3.org/1999/xlink" viewBox="0 0 26 26" width="26px" height="26px">
<g id="surface32567938">
<path style=" stroke:none;fill-rule:nonzero;fill:rgb(80.000001%,80.000001%,80.000001%);fill-opacity:1;" d="M 13 26 C 5.820312 26 0 20.179688 0 13 C 0 5.820312 5.820312 0 13 0 C 20.179688 0 26 5.820312 26 13 C 26 20.179688 20.179688 26 13 26 Z M 13 26 "/>
<path style=" stroke:none;fill-rule:nonzero;fill:rgb(0%,0%,0%);fill-opacity:1;" d="M 18.882812 3.867188 L 10.996094 6.28125 C 10.039062 6.550781 9.265625 7.546875 9.265625 8.503906 L 9.265625 16.710938 C 9.265625 16.710938 9.265625 16.820312 9.265625 16.824219 C 9.265625 16.824219 8.695312 16.4375 7.421875 16.621094 C 5.550781 16.886719 4.035156 18.320312 4.035156 19.824219 C 4.035156 21.332031 5.550781 22.253906 7.421875 21.984375 C 9.292969 21.722656 10.664062 20.332031 10.664062 18.828125 C 10.664062 18.828125 10.664062 12.390625 10.664062 11.722656 C 10.664062 11.054688 11.464844 10.765625 11.464844 10.765625 L 18.441406 8.582031 C 18.441406 8.582031 19.210938 8.324219 19.210938 9.035156 C 19.210938 9.753906 19.210938 14.738281 19.210938 14.738281 C 19.210938 14.738281 19.210938 14.742188 19.210938 14.746094 C 19.210938 14.746094 18.5 14.335938 17.226562 14.488281 C 15.359375 14.71875 13.839844 16.121094 13.839844 17.625 C 13.839844 19.132812 15.359375 20.082031 17.226562 19.855469 C 19.097656 19.632812 20.613281 18.226562 20.613281 16.71875 L 20.613281 5.101562 C 20.613281 4.148438 19.835938 3.59375 18.882812 3.867188 Z M 18.882812 3.867188 "/>
</g>
</svg>
